<mxfile host="Electron" modified="2024-02-18T14:22:05.651Z" agent="Mozilla/5.0 (Windows NT 10.0; Win64; x64) AppleWebKit/537.36 (KHTML, like Gecko) draw.io/23.0.2 Chrome/120.0.6099.109 Electron/28.1.0 Safari/537.36" etag="AbN6CvRNxSeT3vJVWkG9" version="23.0.2" type="device">
  <diagram name="Page-1" id="Al5wAapHEoJ9mFh7ojYQ">
    <mxGraphModel dx="1418" dy="828" grid="1" gridSize="10" guides="1" tooltips="1" connect="1" arrows="1" fold="1" page="1" pageScale="1" pageWidth="827" pageHeight="1169" background="none" math="0" shadow="0">
      <root>
        <mxCell id="0" />
        <mxCell id="1" parent="0" />
        <mxCell id="_oVkWMi1TpzWu_-3pJtZ-10" style="edgeStyle=orthogonalEdgeStyle;rounded=0;orthogonalLoop=1;jettySize=auto;html=1;entryX=0;entryY=0.5;entryDx=0;entryDy=0;entryPerimeter=0;strokeWidth=3;" parent="1" source="_oVkWMi1TpzWu_-3pJtZ-1" target="_oVkWMi1TpzWu_-3pJtZ-4" edge="1">
          <mxGeometry relative="1" as="geometry" />
        </mxCell>
        <mxCell id="_oVkWMi1TpzWu_-3pJtZ-24" style="edgeStyle=orthogonalEdgeStyle;rounded=0;orthogonalLoop=1;jettySize=auto;html=1;strokeWidth=3;" parent="1" source="_oVkWMi1TpzWu_-3pJtZ-1" target="_oVkWMi1TpzWu_-3pJtZ-8" edge="1">
          <mxGeometry relative="1" as="geometry" />
        </mxCell>
        <mxCell id="_oVkWMi1TpzWu_-3pJtZ-1" value="" style="sketch=0;outlineConnect=0;fontColor=#232F3E;gradientColor=none;fillColor=#232F3D;strokeColor=none;dashed=0;verticalLabelPosition=bottom;verticalAlign=top;align=center;html=1;fontSize=12;fontStyle=0;aspect=fixed;pointerEvents=1;shape=mxgraph.aws4.user;rounded=0;" parent="1" vertex="1">
          <mxGeometry x="20" y="438" width="80" height="80" as="geometry" />
        </mxCell>
        <mxCell id="_oVkWMi1TpzWu_-3pJtZ-3" value="AWS Cloud" style="points=[[0,0],[0.25,0],[0.5,0],[0.75,0],[1,0],[1,0.25],[1,0.5],[1,0.75],[1,1],[0.75,1],[0.5,1],[0.25,1],[0,1],[0,0.75],[0,0.5],[0,0.25]];outlineConnect=0;gradientColor=none;html=1;whiteSpace=wrap;fontSize=12;fontStyle=1;container=1;pointerEvents=0;collapsible=0;recursiveResize=0;shape=mxgraph.aws4.group;grIcon=mxgraph.aws4.group_aws_cloud_alt;strokeColor=#232F3E;fillColor=none;verticalAlign=top;align=left;spacingLeft=30;fontColor=#232F3E;dashed=0;rounded=0;strokeWidth=3;" parent="1" vertex="1">
          <mxGeometry x="240" y="200" width="560" height="400" as="geometry" />
        </mxCell>
        <mxCell id="_oVkWMi1TpzWu_-3pJtZ-15" style="edgeStyle=orthogonalEdgeStyle;rounded=0;orthogonalLoop=1;jettySize=auto;html=1;entryX=0;entryY=0.5;entryDx=0;entryDy=0;entryPerimeter=0;strokeWidth=3;" parent="_oVkWMi1TpzWu_-3pJtZ-3" source="_oVkWMi1TpzWu_-3pJtZ-4" target="_oVkWMi1TpzWu_-3pJtZ-5" edge="1">
          <mxGeometry relative="1" as="geometry" />
        </mxCell>
        <mxCell id="_oVkWMi1TpzWu_-3pJtZ-4" value="" style="sketch=0;points=[[0,0,0],[0.25,0,0],[0.5,0,0],[0.75,0,0],[1,0,0],[0,1,0],[0.25,1,0],[0.5,1,0],[0.75,1,0],[1,1,0],[0,0.25,0],[0,0.5,0],[0,0.75,0],[1,0.25,0],[1,0.5,0],[1,0.75,0]];outlineConnect=0;fontColor=#232F3E;gradientColor=#60A337;gradientDirection=north;fillColor=#277116;strokeColor=#ffffff;dashed=0;verticalLabelPosition=bottom;verticalAlign=top;align=center;html=1;fontSize=12;fontStyle=0;aspect=fixed;shape=mxgraph.aws4.resourceIcon;resIcon=mxgraph.aws4.s3;rounded=0;" parent="_oVkWMi1TpzWu_-3pJtZ-3" vertex="1">
          <mxGeometry x="40" y="239" width="78" height="78" as="geometry" />
        </mxCell>
        <mxCell id="_oVkWMi1TpzWu_-3pJtZ-18" style="edgeStyle=orthogonalEdgeStyle;rounded=0;orthogonalLoop=1;jettySize=auto;html=1;entryX=0;entryY=0.5;entryDx=0;entryDy=0;entryPerimeter=0;strokeWidth=3;" parent="_oVkWMi1TpzWu_-3pJtZ-3" source="_oVkWMi1TpzWu_-3pJtZ-5" target="_oVkWMi1TpzWu_-3pJtZ-7" edge="1">
          <mxGeometry relative="1" as="geometry" />
        </mxCell>
        <mxCell id="_oVkWMi1TpzWu_-3pJtZ-21" style="edgeStyle=orthogonalEdgeStyle;rounded=0;orthogonalLoop=1;jettySize=auto;html=1;strokeWidth=3;" parent="_oVkWMi1TpzWu_-3pJtZ-3" source="_oVkWMi1TpzWu_-3pJtZ-5" target="_oVkWMi1TpzWu_-3pJtZ-6" edge="1">
          <mxGeometry relative="1" as="geometry" />
        </mxCell>
        <mxCell id="_oVkWMi1TpzWu_-3pJtZ-5" value="" style="sketch=0;points=[[0,0,0],[0.25,0,0],[0.5,0,0],[0.75,0,0],[1,0,0],[0,1,0],[0.25,1,0],[0.5,1,0],[0.75,1,0],[1,1,0],[0,0.25,0],[0,0.5,0],[0,0.75,0],[1,0.25,0],[1,0.5,0],[1,0.75,0]];outlineConnect=0;fontColor=#232F3E;gradientColor=#F78E04;gradientDirection=north;fillColor=#D05C17;strokeColor=#ffffff;dashed=0;verticalLabelPosition=bottom;verticalAlign=top;align=center;html=1;fontSize=12;fontStyle=0;aspect=fixed;shape=mxgraph.aws4.resourceIcon;resIcon=mxgraph.aws4.lambda;rounded=0;" parent="_oVkWMi1TpzWu_-3pJtZ-3" vertex="1">
          <mxGeometry x="250" y="239" width="78" height="78" as="geometry" />
        </mxCell>
        <mxCell id="_oVkWMi1TpzWu_-3pJtZ-6" value="" style="sketch=0;points=[[0,0,0],[0.25,0,0],[0.5,0,0],[0.75,0,0],[1,0,0],[0,1,0],[0.25,1,0],[0.5,1,0],[0.75,1,0],[1,1,0],[0,0.25,0],[0,0.5,0],[0,0.75,0],[1,0.25,0],[1,0.5,0],[1,0.75,0]];outlineConnect=0;fontColor=#232F3E;gradientColor=#FF4F8B;gradientDirection=north;fillColor=#BC1356;strokeColor=#ffffff;dashed=0;verticalLabelPosition=bottom;verticalAlign=top;align=center;html=1;fontSize=12;fontStyle=0;aspect=fixed;shape=mxgraph.aws4.resourceIcon;resIcon=mxgraph.aws4.sns;rounded=0;" parent="_oVkWMi1TpzWu_-3pJtZ-3" vertex="1">
          <mxGeometry x="250" y="40" width="78" height="78" as="geometry" />
        </mxCell>
        <mxCell id="_oVkWMi1TpzWu_-3pJtZ-7" value="" style="outlineConnect=0;dashed=0;verticalLabelPosition=bottom;verticalAlign=top;align=center;html=1;shape=mxgraph.aws3.rekognition;fillColor=#2E73B8;gradientColor=none;rounded=0;" parent="_oVkWMi1TpzWu_-3pJtZ-3" vertex="1">
          <mxGeometry x="450" y="231.5" width="76.5" height="93" as="geometry" />
        </mxCell>
        <mxCell id="_oVkWMi1TpzWu_-3pJtZ-17" value="AWS Lambda" style="text;html=1;align=center;verticalAlign=middle;resizable=0;points=[];autosize=1;strokeColor=none;fillColor=none;fontStyle=1;rounded=0;" parent="_oVkWMi1TpzWu_-3pJtZ-3" vertex="1">
          <mxGeometry x="239" y="324.5" width="100" height="30" as="geometry" />
        </mxCell>
        <mxCell id="_oVkWMi1TpzWu_-3pJtZ-19" value="DetectLabels" style="text;html=1;align=center;verticalAlign=middle;resizable=0;points=[];autosize=1;strokeColor=none;fillColor=none;fontStyle=1;rounded=0;fontSize=13;" parent="_oVkWMi1TpzWu_-3pJtZ-3" vertex="1">
          <mxGeometry x="330" y="248" width="100" height="30" as="geometry" />
        </mxCell>
        <mxCell id="_oVkWMi1TpzWu_-3pJtZ-20" value="Rekognition" style="text;html=1;align=center;verticalAlign=middle;resizable=0;points=[];autosize=1;strokeColor=none;fillColor=none;fontStyle=1;rounded=0;" parent="_oVkWMi1TpzWu_-3pJtZ-3" vertex="1">
          <mxGeometry x="443.25" y="324.5" width="90" height="30" as="geometry" />
        </mxCell>
        <mxCell id="_oVkWMi1TpzWu_-3pJtZ-28" value="2" style="ellipse;whiteSpace=wrap;html=1;aspect=fixed;fillColor=#a0522d;strokeColor=#6D1F00;fontColor=#ffffff;rounded=0;" parent="_oVkWMi1TpzWu_-3pJtZ-3" vertex="1">
          <mxGeometry x="160" y="285.5" width="39" height="39" as="geometry" />
        </mxCell>
        <mxCell id="_oVkWMi1TpzWu_-3pJtZ-29" value="3" style="ellipse;whiteSpace=wrap;html=1;aspect=fixed;fillColor=#a0522d;strokeColor=#6D1F00;fontColor=#ffffff;rounded=0;" parent="_oVkWMi1TpzWu_-3pJtZ-3" vertex="1">
          <mxGeometry x="370" y="285.5" width="39" height="39" as="geometry" />
        </mxCell>
        <mxCell id="_oVkWMi1TpzWu_-3pJtZ-30" value="4" style="ellipse;whiteSpace=wrap;html=1;aspect=fixed;fillColor=#a0522d;strokeColor=#6D1F00;fontColor=#ffffff;rounded=0;" parent="_oVkWMi1TpzWu_-3pJtZ-3" vertex="1">
          <mxGeometry x="239" y="178" width="39" height="39" as="geometry" />
        </mxCell>
        <mxCell id="_oVkWMi1TpzWu_-3pJtZ-31" value="5" style="ellipse;whiteSpace=wrap;html=1;aspect=fixed;fillColor=#a0522d;strokeColor=#6D1F00;fontColor=#ffffff;rounded=0;" parent="_oVkWMi1TpzWu_-3pJtZ-3" vertex="1">
          <mxGeometry x="160.5" y="90" width="39" height="39" as="geometry" />
        </mxCell>
        <mxCell id="_oVkWMi1TpzWu_-3pJtZ-33" value="SNS" style="text;html=1;align=center;verticalAlign=middle;resizable=0;points=[];autosize=1;strokeColor=none;fillColor=none;fontStyle=1;rounded=0;" parent="_oVkWMi1TpzWu_-3pJtZ-3" vertex="1">
          <mxGeometry x="289" y="118" width="50" height="30" as="geometry" />
        </mxCell>
        <mxCell id="SOW6AxskkYS-7lBf59hI-1" value="" style="sketch=0;points=[[0,0,0],[0.25,0,0],[0.5,0,0],[0.75,0,0],[1,0,0],[0,1,0],[0.25,1,0],[0.5,1,0],[0.75,1,0],[1,1,0],[0,0.25,0],[0,0.5,0],[0,0.75,0],[1,0.25,0],[1,0.5,0],[1,0.75,0]];outlineConnect=0;fontColor=#232F3E;fillColor=#E7157B;strokeColor=#ffffff;dashed=0;verticalLabelPosition=bottom;verticalAlign=top;align=center;html=1;fontSize=12;fontStyle=0;aspect=fixed;shape=mxgraph.aws4.resourceIcon;resIcon=mxgraph.aws4.sqs;rounded=0;" parent="_oVkWMi1TpzWu_-3pJtZ-3" vertex="1">
          <mxGeometry x="449" y="40" width="78" height="78" as="geometry" />
        </mxCell>
        <mxCell id="SOW6AxskkYS-7lBf59hI-4" value="SQS" style="text;html=1;align=center;verticalAlign=middle;resizable=0;points=[];autosize=1;strokeColor=none;fillColor=none;fontStyle=1;rounded=0;" parent="_oVkWMi1TpzWu_-3pJtZ-3" vertex="1">
          <mxGeometry x="463" y="118" width="50" height="30" as="geometry" />
        </mxCell>
        <mxCell id="_oVkWMi1TpzWu_-3pJtZ-25" value="Send results to subscribers" style="text;html=1;align=center;verticalAlign=middle;resizable=0;points=[];autosize=1;strokeColor=none;fillColor=none;fontStyle=1;rounded=0;fontSize=13;" parent="_oVkWMi1TpzWu_-3pJtZ-3" vertex="1">
          <mxGeometry x="185" y="10" width="190" height="30" as="geometry" />
        </mxCell>
        <mxCell id="_oVkWMi1TpzWu_-3pJtZ-8" value="" style="outlineConnect=0;dashed=0;verticalLabelPosition=bottom;verticalAlign=top;align=center;html=1;shape=mxgraph.aws3.email;fillColor=#D9A741;gradientColor=none;rounded=0;" parent="1" vertex="1">
          <mxGeometry x="15" y="248.25" width="90" height="61.5" as="geometry" />
        </mxCell>
        <mxCell id="_oVkWMi1TpzWu_-3pJtZ-11" value="Upload image" style="text;html=1;align=center;verticalAlign=middle;resizable=0;points=[];autosize=1;strokeColor=none;fillColor=none;fontStyle=1;rounded=0;fontSize=13;" parent="1" vertex="1">
          <mxGeometry x="95" y="447" width="110" height="30" as="geometry" />
        </mxCell>
        <mxCell id="_oVkWMi1TpzWu_-3pJtZ-13" value="User" style="text;html=1;align=center;verticalAlign=middle;resizable=0;points=[];autosize=1;strokeColor=none;fillColor=none;fontStyle=1;rounded=0;" parent="1" vertex="1">
          <mxGeometry x="35" y="523" width="50" height="30" as="geometry" />
        </mxCell>
        <mxCell id="_oVkWMi1TpzWu_-3pJtZ-14" value="Amazon S3" style="text;html=1;align=center;verticalAlign=middle;resizable=0;points=[];autosize=1;strokeColor=none;fillColor=none;fontStyle=1;rounded=0;" parent="1" vertex="1">
          <mxGeometry x="276" y="523" width="90" height="30" as="geometry" />
        </mxCell>
        <mxCell id="_oVkWMi1TpzWu_-3pJtZ-16" value="s3 object &lt;br style=&quot;font-size: 13px;&quot;&gt;created event" style="text;html=1;align=center;verticalAlign=middle;resizable=0;points=[];autosize=1;strokeColor=none;fillColor=none;fontStyle=1;rounded=0;fontSize=13;" parent="1" vertex="1">
          <mxGeometry x="361" y="440" width="110" height="40" as="geometry" />
        </mxCell>
        <mxCell id="_oVkWMi1TpzWu_-3pJtZ-22" value="Publish DetectLabels&lt;br style=&quot;font-size: 13px;&quot;&gt;results" style="text;html=1;align=center;verticalAlign=middle;resizable=0;points=[];autosize=1;strokeColor=none;fillColor=none;fontStyle=1;rounded=0;fontSize=13;" parent="1" vertex="1">
          <mxGeometry x="529" y="377" width="150" height="40" as="geometry" />
        </mxCell>
        <mxCell id="_oVkWMi1TpzWu_-3pJtZ-23" style="edgeStyle=orthogonalEdgeStyle;rounded=0;orthogonalLoop=1;jettySize=auto;html=1;strokeWidth=3;" parent="1" source="_oVkWMi1TpzWu_-3pJtZ-6" target="_oVkWMi1TpzWu_-3pJtZ-8" edge="1">
          <mxGeometry relative="1" as="geometry" />
        </mxCell>
        <mxCell id="_oVkWMi1TpzWu_-3pJtZ-26" value="Receive results by email" style="text;html=1;align=center;verticalAlign=middle;resizable=0;points=[];autosize=1;strokeColor=none;fillColor=none;fontStyle=1;rounded=0;fontSize=13;" parent="1" vertex="1">
          <mxGeometry x="58" y="360" width="170" height="30" as="geometry" />
        </mxCell>
        <mxCell id="_oVkWMi1TpzWu_-3pJtZ-27" value="1" style="ellipse;whiteSpace=wrap;html=1;aspect=fixed;fillColor=#a0522d;strokeColor=#6D1F00;fontColor=#ffffff;rounded=0;" parent="1" vertex="1">
          <mxGeometry x="150" y="484" width="39" height="39" as="geometry" />
        </mxCell>
        <mxCell id="_oVkWMi1TpzWu_-3pJtZ-32" value="6" style="ellipse;whiteSpace=wrap;html=1;aspect=fixed;fillColor=#a0522d;strokeColor=#6D1F00;fontColor=#ffffff;rounded=0;" parent="1" vertex="1">
          <mxGeometry x="15" y="354" width="39" height="39" as="geometry" />
        </mxCell>
        <mxCell id="SOW6AxskkYS-7lBf59hI-2" style="edgeStyle=orthogonalEdgeStyle;rounded=0;orthogonalLoop=1;jettySize=auto;html=1;entryX=0;entryY=0.5;entryDx=0;entryDy=0;entryPerimeter=0;strokeWidth=3;" parent="1" edge="1">
          <mxGeometry relative="1" as="geometry">
            <mxPoint x="569" y="279" as="sourcePoint" />
            <mxPoint x="691" y="279" as="targetPoint" />
          </mxGeometry>
        </mxCell>
        <mxCell id="SOW6AxskkYS-7lBf59hI-3" value="5" style="ellipse;whiteSpace=wrap;html=1;aspect=fixed;fillColor=#a0522d;strokeColor=#6D1F00;fontColor=#ffffff;rounded=0;" parent="1" vertex="1">
          <mxGeometry x="603.5" y="290" width="39" height="39" as="geometry" />
        </mxCell>
      </root>
    </mxGraphModel>
  </diagram>
</mxfile>
